# xmcd
#
# Track frame offsets: 
#        182
#        16605
#        38741
#        60789
#        79289
#        100615
#        117510
#        135054
#        153932
#        169937
#        199653
#        223887
#        249488
#        273349
#        283953
#        300658
#        334525
#
# Disc length: 4678 seconds
#
# Revision: 0
# Processed by: cddbd v1.5.2PL0 Copyright (c) Steve Scherf et al.
# Submitted via: ExactAudioCopyFreeDBPlugin 1.0
#
DISCID=de124411
DTITLE=Bonnie Pointer - If The Price Is Right
DYEAR=1984
DGENRE=R&B
TTITLE0=Premonition
TTITLE1=Johnny
TTITLE2=Come Softly To Me
TTITLE3=Under The Influence Of Love
TTITLE4=Your Touch
TTITLE5=Tight Blue Jeans
TTITLE6=There's Nobody Quite Like You
TTITLE7=If The Price Is Right
TTITLE8=Your Touch (Single Version)
TTITLE9=Your Touch (Club Version)
TTITLE10=Your Touch (Dub Version)
TTITLE11=Premonition (Dance Version)
TTITLE12=Premonition (Dub Version)
TTITLE13=There's Nobody Quite Like You (Single Version)
TTITLE14=The Beast In Me (Single Version)
TTITLE15=The Beast In Me (12'' Version)
TTITLE16=Heaven
EXTD=
EXTT0=
EXTT1=
EXTT2=
EXTT3=
EXTT4=
EXTT5=
EXTT6=
EXTT7=
EXTT8=
EXTT9=
EXTT10=
EXTT11=
EXTT12=
EXTT13=
EXTT14=
EXTT15=
EXTT16=
PLAYORDER=
